<?xml version="1.0" encoding="utf-8"?>
<!-- Created with "sPlan" (http://www.abacom-online.de) -->
<svg version="1.1" baseProfile="full"
xmlns="http://www.w3.org/2000/svg"
width="490" height="480">
<title>icon</title>
<defs>
<style type="text/css">
<![CDATA[
polyline {stroke-linecap:round; stroke-linejoin:round}
polygon {stroke-linecap:round; stroke-linejoin:round}
path {stroke-linecap:round; stroke-linejoin:round}
circle {stroke-linecap:round; stroke-linejoin:round}
]]>
</style>
</defs>
<path fill="rgb(255,255,255)" stroke="none" stroke-width="2" d=" M 438.77 259.51 Q 440.70 240.00 438.77 220.49 Q 436.85 200.98 431.15 182.22 Q 425.45 163.46 416.19 146.17 Q 406.93 128.89 394.47 113.73 Q 382.02 98.58 366.84 86.14 Q 351.66 73.71 334.34 64.47 Q 317.02 55.22 298.23 49.53 Q 279.43 43.84 259.89 41.92 Q 240.35 40.00 220.81 41.92 Q 201.26 43.84 182.47 49.53 Q 163.68 55.22 146.36 64.47 Q 129.04 73.71 113.86 86.14 Q 98.68 98.58 86.22 113.73 Q 73.76 128.89 64.51 146.17 Q 55.25 163.46 49.55 182.22 Q 43.85 200.98 41.92 220.49 Q 40.00 240.00 41.92 259.51 Q 43.85 279.02 49.55 297.78 Q 55.25 316.54 64.51 333.83 Q 73.76 351.11 86.22 366.27 Q 98.68 381.42 113.86 393.86 Q 129.04 406.29 146.36 415.53 Q 163.68 424.78 182.47 430.47 Q 201.26 436.16 220.81 438.08 Q 240.35 440.00 259.89 438.08 Q 279.43 436.16 298.23 430.47 Q 317.02 424.78 334.34 415.53 Q 351.66 406.29 366.84 393.86 Q 382.02 381.42 394.47 366.27 Q 406.93 351.11 416.19 333.83 Q 425.45 316.54 431.15 297.78 Q 436.85 279.02 438.77 259.51 Z" />
<text x="60.23" y="298.00" font-family ="Cascadia Mono" font-size ="125pt" font-weight="bold" font-style="italic" fill="rgb(0,0,0)" transform=" rotate(0.000) scale(1.000,1.000)">PDF</text>
<path fill="none" stroke="rgb(255,0,0)" stroke-width="20" d=" M 433.43 188.20 Q 419.61 151.54 409.26 134.89 Q 398.90 118.25 385.50 103.94 Q 372.10 89.63 356.17 78.21 Q 340.23 66.79 322.38 58.70 Q 304.52 50.61 285.43 46.16 Q 266.34 41.71 246.74 41.07 Q 227.15 40.43 207.81 43.62 Q 188.47 46.81 170.12 53.72 Q 151.77 60.63 135.13 70.98 Q 118.48 81.33 104.17 94.73 Q 89.86 108.13 78.45 124.07 Q 67.03 140.00 58.94 157.86 Q 50.85 175.71 46.40 194.80 Q 41.94 213.89 41.30 233.49 Q 40.66 253.08 43.85 272.42 Q 47.05 291.76 53.95 310.11 Q 60.86 328.46 71.21 345.11 Q 81.56 361.75 94.96 376.06 Q 108.36 390.37 124.30 401.79 Q 140.23 413.21 158.09 421.30 Q 175.94 429.39 195.04 433.84 Q 214.13 438.29 233.72 438.93 Q 253.31 439.57 272.65 436.38 Q 292.00 433.19 310.34 426.28 Q 328.69 419.37 345.34 409.02 Q 361.98 398.67 376.29 385.27 Q 390.60 371.87 401.02 357.28 L 411.43 342.70" />
<polygon points="40 40 90 50 70 60 420 410 430 390 440 440 390 430 410 420 60 70 50 90" fill="rgb(0,0,255)" stroke="rgb(255,255,255)" stroke-width="5" />
<polygon points="450 260 450 110 410 150 370 130" fill="rgb(255,0,0)" stroke="rgb(255,255,255)" stroke-width="5" />
<polyline points="100.23 330.00 390.23 330.00" fill="none" stroke="rgb(0,0,0)" stroke-width="20" />
</svg>
