<?xml version="1.0" encoding="utf-8"?>
<!-- Created with "sPlan" (http://www.abacom-online.de) -->
<svg version="1.1" baseProfile="full"
xmlns="http://www.w3.org/2000/svg"
width="727" height="480">
<title>all_size_text_item</title>
<defs>
<style type="text/css">
<![CDATA[
polyline {stroke-linecap:round; stroke-linejoin:round}
polygon {stroke-linecap:round; stroke-linejoin:round}
path {stroke-linecap:round; stroke-linejoin:round}
circle {stroke-linecap:round; stroke-linejoin:round}
]]>
</style>
</defs>
<path fill="rgb(255,255,255)" stroke="none" stroke-width="2" style="stroke-linecap:square; stroke-linejoin:miter" d=" M 360 40 L 687 40 687 310 360 310 360 40" />
<text x="398.82" y="240.00" font-family ="Arial" font-size ="146pt" font-weight="bold" font-style="normal" fill="rgb(0,0,0)" transform=" rotate(0.000) scale(0.978,1.000)">Txt</text>
<polygon points="170 270 170 200 140 200 190 140 240 200 210 200 210 270 280 270 280 250 340 290 280 330 280 310 210 310 210 380 230 380 190 440 150 380 170 380 170 310 100 310 100 330 40 290 100 250 100 270" fill="rgb(255,255,255)" stroke="rgb(0,0,0)" stroke-width="10" />
</svg>
