<?xml version="1.0" encoding="utf-8"?>
<!-- Created with "sPlan" (http://www.abacom-online.de) -->
<svg version="1.1" baseProfile="full"
xmlns="http://www.w3.org/2000/svg"
width="567" height="570">
<title>arrow_ruller</title>
<defs>
<style type="text/css">
<![CDATA[
polyline {stroke-linecap:round; stroke-linejoin:round}
polygon {stroke-linecap:round; stroke-linejoin:round}
path {stroke-linecap:round; stroke-linejoin:round}
circle {stroke-linecap:round; stroke-linejoin:round}
]]>
</style>
</defs>
<path fill="rgb(255,255,255)" stroke="none" stroke-width="2" style="stroke-linecap:square; stroke-linejoin:miter" d=" M 280 40 L 527 40 527 310 280 310 280 40" />
<polygon points="40 290 230 450 130 460 160 510 140 520 110 470 40 530" fill="rgb(255,255,255)" stroke="rgb(0,0,0)" stroke-width="10" />
<path fill="rgb(255,255,255)" stroke="rgb(0,0,0)" stroke-width="10" style="stroke-linecap:square; stroke-linejoin:miter" d=" M 471 49 L 516 94 334 276 289 230 471 49" />
<polyline points="490.00 120.00 464.00 94.00" fill="none" stroke="rgb(0,0,0)" stroke-width="5" />
<polyline points="457.50 152.50 431.50 126.50" fill="none" stroke="rgb(0,0,0)" stroke-width="5" />
<polyline points="425.00 185.00 399.01 159.00" fill="none" stroke="rgb(0,0,0)" stroke-width="5" />
<polyline points="392.51 217.49 366.51 191.50" fill="none" stroke="rgb(0,0,0)" stroke-width="5" />
<polyline points="360.01 249.99 334.01 223.99" fill="none" stroke="rgb(0,0,0)" stroke-width="5" />
<polyline points="503.00 107.00 490.00 94.00" fill="none" stroke="rgb(0,0,0)" stroke-width="5" />
<polyline points="470.50 139.50 457.50 126.50" fill="none" stroke="rgb(0,0,0)" stroke-width="5" />
<polyline points="438.00 172.00 425.00 159.00" fill="none" stroke="rgb(0,0,0)" stroke-width="5" />
<polyline points="405.50 204.50 392.51 191.50" fill="none" stroke="rgb(0,0,0)" stroke-width="5" />
<polyline points="379.51 230.49 366.51 217.49" fill="none" stroke="rgb(0,0,0)" stroke-width="5" />
<polyline points="386.01 223.99 373.01 210.99" fill="none" stroke="rgb(0,0,0)" stroke-width="5" />
<polyline points="373.01 236.99 360.01 223.99" fill="none" stroke="rgb(0,0,0)" stroke-width="5" />
<polyline points="366.51 243.49 353.51 230.49" fill="none" stroke="rgb(0,0,0)" stroke-width="5" />
<polyline points="353.51 256.49 340.51 243.49" fill="none" stroke="rgb(0,0,0)" stroke-width="5" />
<polyline points="347.01 262.99 334.01 249.99" fill="none" stroke="rgb(0,0,0)" stroke-width="5" />
<polyline points="340.51 269.49 327.51 256.49" fill="none" stroke="rgb(0,0,0)" stroke-width="5" />
<polyline points="399.01 210.99 386.01 198.00" fill="none" stroke="rgb(0,0,0)" stroke-width="5" />
<polyline points="412.00 198.00 399.01 185.00" fill="none" stroke="rgb(0,0,0)" stroke-width="5" />
<polyline points="418.50 191.50 405.50 178.50" fill="none" stroke="rgb(0,0,0)" stroke-width="5" />
<polyline points="431.50 178.50 418.50 165.50" fill="none" stroke="rgb(0,0,0)" stroke-width="5" />
<polyline points="444.50 165.50 431.50 152.50" fill="none" stroke="rgb(0,0,0)" stroke-width="5" />
<polyline points="451.00 159.00 438.00 146.00" fill="none" stroke="rgb(0,0,0)" stroke-width="5" />
<polyline points="464.00 146.00 451.00 133.00" fill="none" stroke="rgb(0,0,0)" stroke-width="5" />
<polyline points="477.00 133.00 464.00 120.00" fill="none" stroke="rgb(0,0,0)" stroke-width="5" />
<polyline points="483.50 126.50 470.50 113.50" fill="none" stroke="rgb(0,0,0)" stroke-width="5" />
<polyline points="496.50 113.50 483.50 100.50" fill="none" stroke="rgb(0,0,0)" stroke-width="5" />
<polyline points="509.50 100.50 496.50 87.50" fill="none" stroke="rgb(0,0,0)" stroke-width="5" />
</svg>
